<svg xmlns="http://www.w3.org/2000/svg" width="1200" height="630" viewBox="0 0 1200 630">
  <rect width="1200" height="630" fill="#05060E"/>
  <rect width="1200" height="3" fill="#C8F135" opacity="0.6"/>
  <rect y="627" width="1200" height="3" fill="#C8F135" opacity="0.15"/>
  <!-- Grid dots -->
  <g fill="#C8F135" opacity="0.06">
    <circle cx="100" cy="100" r="2"/><circle cx="200" cy="100" r="2"/><circle cx="300" cy="100" r="2"/>
    <circle cx="100" cy="200" r="2"/><circle cx="200" cy="200" r="2"/><circle cx="300" cy="200" r="2"/>
    <circle cx="900" cy="400" r="2"/><circle cx="1000" cy="400" r="2"/><circle cx="1100" cy="400" r="2"/>
    <circle cx="900" cy="500" r="2"/><circle cx="1000" cy="500" r="2"/><circle cx="1100" cy="500" r="2"/>
  </g>
  <!-- Logo mark -->
  <rect x="80" y="60" width="40" height="40" rx="8" fill="#C8F135"/>
  <rect x="126" y="60" width="40" height="40" rx="8" fill="#C8F135" opacity="0.6"/>
  <rect x="80" y="106" width="40" height="40" rx="8" fill="#C8F135" opacity="0.6"/>
  <rect x="126" y="106" width="40" height="40" rx="8" fill="#C8F135" opacity="0.3"/>
  <!-- FiveNodes wordmark -->
  <text x="184" y="95" font-family="sans-serif" font-size="32" font-weight="700" fill="#ffffff" letter-spacing="-1">FiveNodes</text>
  <!-- Main heading -->
  <text x="80" y="280" font-family="sans-serif" font-size="64" font-weight="800" fill="#ffffff" letter-spacing="-3">AI-powered software</text>
  <text x="80" y="358" font-family="sans-serif" font-size="64" font-weight="300" font-style="italic" fill="rgba(255,255,255,0.35)" letter-spacing="-3">engineering that scales.</text>
  <!-- Subtext -->
  <text x="80" y="430" font-family="sans-serif" font-size="22" fill="rgba(255,255,255,0.4)" letter-spacing="0">SaaS · AI / LLM Integration · Cloud · Austin, TX · Since 2021</text>
  <!-- CTA badge -->
  <rect x="80" y="490" width="220" height="44" rx="22" fill="rgba(200,241,53,0.1)" stroke="#C8F135" stroke-width="1" stroke-opacity="0.3"/>
  <text x="190" y="518" font-family="sans-serif" font-size="16" font-weight="600" fill="#C8F135" text-anchor="middle" letter-spacing="1">5ivenodes.com</text>
</svg>
